<svg xmlns="http://www.w3.org/2000/svg" width="96" height="96" viewBox="0 0 96 96">
  <rect x="4" y="4" width="88" height="88" rx="23" fill="#B7C0CA"/>
  <rect x="6" y="5" width="84" height="84" rx="21" fill="#CBD5E1"/>
  <rect x="10" y="9" width="76" height="36" rx="18" fill="#D4DDE6" opacity="0.42"/>
  <circle cx="72" cy="24" r="15" fill="#FFFFFF" opacity="0.12"/>
  <path d="M6,2A2,2 0 0,0 4,4V20A2,2 0 0,0 6,22H18A2,2 0 0,0 20,20V8L14,2H6M6,4H13V9H18V20H6V4M8,12V14H16V12H8M8,16V18H13V16H8Z" fill="#FFFFFF" transform="translate(24 24) scale(2)"/>
</svg>
