<svg xmlns="http://www.w3.org/2000/svg" width="96" height="96" viewBox="0 0 96 96">
  <rect x="4" y="4" width="88" height="88" rx="23" fill="#DC3955"/>
  <rect x="6" y="5" width="84" height="84" rx="21" fill="#F43F5E"/>
  <rect x="10" y="9" width="76" height="36" rx="18" fill="#F6627B" opacity="0.42"/>
  <circle cx="72" cy="24" r="15" fill="#FFFFFF" opacity="0.12"/>
  <path d="M18,9H16V7H18M18,13H16V11H18M18,17H16V15H18M8,9H6V7H8M8,13H6V11H8M8,17H6V15H8M18,3V5H16V3H8V5H6V3H4V21H6V19H8V21H16V19H18V21H20V3H18Z" fill="#FFFFFF" transform="translate(24 24) scale(2)"/>
</svg>
